<svg xmlns="http://www.w3.org/2000/svg" width="20" height="20" viewBox="0 0 20 20">
  <path id="icon-fax" d="M20.5,11.5a10,10,0,1,1-10-10A10,10,0,0,1,20.5,11.5ZM7.563,10.62a1.305,1.305,0,0,0-2.61,0v5.51a1.305,1.305,0,0,0,2.61,0ZM7.005,4.887a.5.5,0,0,0-.5.5V8.329a2.288,2.288,0,0,1,1.382.663,1.939,1.939,0,0,1,.153.168h6.421V8.284H11.505a.529.529,0,0,1-.527-.528V4.887Zm9,5.791a.5.5,0,0,0-.5-.5H8.52a2.338,2.338,0,0,1,.043.441v5.51a2.29,2.29,0,0,1-.391,1.286H15.5a.5.5,0,0,0,.5-.5Zm-4.984,1.762a.5.5,0,0,0-.5-.5h0a.5.5,0,1,0,.5.5Zm0,1.485a.5.5,0,0,0-.5-.5h0a.5.5,0,1,0,.5.5Zm0,1.485a.5.5,0,0,0-.5-.5h0a.5.5,0,1,0,.5.5Zm1.694-2.971a.5.5,0,0,0-.5-.5h0a.5.5,0,0,0,0,1h0a.5.5,0,0,0,.5-.5Zm0,1.486a.5.5,0,0,0-.5-.5h0a.5.5,0,0,0,0,1h0a.5.5,0,0,0,.5-.5Zm0,1.485a.5.5,0,0,0-.5-.5h0a.5.5,0,1,0,0,1h0a.5.5,0,0,0,.5-.5Zm-.934-7.928h2.684V7.479L11.779,4.887h0ZM14.4,12.44a.5.5,0,1,0-.5.5.5.5,0,0,0,.5-.5Zm0,1.486a.5.5,0,1,0-.5.5.5.5,0,0,0,.5-.5Zm0,1.485a.5.5,0,1,0-.5.5A.5.5,0,0,0,14.4,15.411Z" transform="translate(-0.5 -1.5)" fill="#3e90e2"/>
</svg>
