<svg id="icon-email" xmlns="http://www.w3.org/2000/svg" width="20" height="20" viewBox="0 0 20 20">
  <rect id="사각형_102" data-name="사각형 102" width="20" height="20" rx="10" fill="#3e90e2"/>
  <path id="envelope-solid" d="M1.233,64A1.266,1.266,0,0,0,0,65.3a1.32,1.32,0,0,0,.493,1.037l5.591,4.406a.793.793,0,0,0,.987,0l5.591-4.406a1.32,1.32,0,0,0,.493-1.037A1.266,1.266,0,0,0,11.921,64ZM0,67.023v5.615a1.689,1.689,0,0,0,1.644,1.728H11.51a1.689,1.689,0,0,0,1.644-1.728V67.023L7.564,71.429a1.579,1.579,0,0,1-1.973,0Z" transform="translate(3.423 -59.183)" fill="#fff"/>
</svg>
