<svg id="logo-grey" xmlns="http://www.w3.org/2000/svg" xmlns:xlink="http://www.w3.org/1999/xlink" width="77.077" height="24" viewBox="0 0 77.077 24">
  <defs>
    <clipPath id="clip-path">
      <rect id="사각형_55" data-name="사각형 55" width="77.077" height="24" fill="#abb2b9"/>
    </clipPath>
  </defs>
  <g id="그룹_3" data-name="그룹 3" clip-path="url(#clip-path)">
    <path id="패스_35" data-name="패스 35" d="M129.827,0A8.487,8.487,0,0,0,121.7,7.125l-1.365,9.711a6.289,6.289,0,0,0,1.41,5.089A6.172,6.172,0,0,0,126.495,24a8.487,8.487,0,0,0,8.127-7.124l1.365-9.711a6.288,6.288,0,0,0-1.41-5.089A6.17,6.17,0,0,0,129.827,0m1.039,7.155L129.51,16.8a2.436,2.436,0,0,1-2.332,2.046,1.727,1.727,0,0,1-1.33-.578,1.764,1.764,0,0,1-.392-1.427L126.812,7.2a2.436,2.436,0,0,1,2.332-2.046,1.726,1.726,0,0,1,1.329.578,1.762,1.762,0,0,1,.393,1.427" transform="translate(-102.91 -0.001)" fill="#abb2b9"/>
    <path id="패스_36" data-name="패스 36" d="M275.87,2.076A6.17,6.17,0,0,0,271.12,0H264l-2.362,16.8A2.436,2.436,0,0,1,259.3,18.85a1.727,1.727,0,0,1-1.329-.578,1.763,1.763,0,0,1-.392-1.427l1.36-9.68a6.288,6.288,0,0,0-1.409-5.089A6.171,6.171,0,0,0,252.781,0a8.487,8.487,0,0,0-8.126,7.124l-1.361,9.68a2.437,2.437,0,0,1-2.332,2.046,1.727,1.727,0,0,1-1.329-.578,1.762,1.762,0,0,1-.392-1.427L241.607,0h-5.121L234.12,16.835a6.289,6.289,0,0,0,1.41,5.089A6.171,6.171,0,0,0,240.279,24a8.487,8.487,0,0,0,8.126-7.124l1.361-9.68A2.436,2.436,0,0,1,252.1,5.15a1.726,1.726,0,0,1,1.329.578,1.763,1.763,0,0,1,.393,1.427l-1.36,9.68a6.289,6.289,0,0,0,1.41,5.089A6.171,6.171,0,0,0,258.618,24a8.487,8.487,0,0,0,8.126-7.124L268.4,5.119h2.013a1.765,1.765,0,0,1,1.359.594,1.746,1.746,0,0,1,.395,1.412L270.8,16.835a2.464,2.464,0,0,1-2.334,2.044l-.125,0L267.621,24h.167a8.487,8.487,0,0,0,8.126-7.124l1.365-9.712a6.287,6.287,0,0,0-1.41-5.089" transform="translate(-200.275 0)" fill="#abb2b9"/>
    <path id="패스_37" data-name="패스 37" d="M12.543,0,11.216,9.441H7.168L8.495,0H3.373L0,24H5.122L6.448,14.56H10.5L9.17,24h5.121L17.664,0Z" transform="translate(0 0)" fill="#abb2b9"/>
  </g>
</svg>
